{"title":"Earth, The Power of the Planet 2007 5DVDrip English Klam","uid":6905920,"size":6290025975,"categoryP":"video","categoryS":"movies","magnet":"?xt=urn:btih:7eeccc746ca51c14c8bf3514c143b056c396ca90&amp;dn=Earth%2C+The+Power+of+the+Planet+2007+5DVDrip+English+Klam&amp;tr=udp%3A%2F%2Ftracker.openbittorrent.com%3A80&amp;tr=udp%3A%2F%2Fopen.demonii.com%3A1337&amp;tr=udp%3A%2F%2Ftracker.coppersurfer.tk%3A6969&amp;tr=udp%3A%2F%2Fexodus.desync.com%3A6969","seeders":1,"leechers":1,"uploader":"Klambake","files":-1,"time":1324583450,"description":"BBC Documentaire\nca. 250 min.'\n1. Volcano\n2. Air and the Atmosphere\n3. Ice\n4. Oceans\n5. The Rare Earth \n\nDeze vijfdelige documentaireserie doet in een notendop de geschiedenis van de aarde uit de doeken en laat zien hoe alle natuurlijke systemen samenwerken om onze planeet in stand te houden. We gaan op onderzoek naar de machtige factoren die het leven op aarde beheersen, zoals de vulkanen, de oceanen, de dampkring en het ijs. We ontdekken welke rol deze oerkrachten hebben gespeeld in de geschiedenis van de planeet en welke invloed ze hebben op het klimaat. \n\nDocumentary,\nIn each episode, geologist Dr. Iain Stewart explains the effects and importance of a specific force of nature...\n1. Volcano\n2. Air &amp; the atmosphere\n3. Ice\n4. Oceans\n5. The rare earth \n\n------------------------ Dutch Friends ------------------------\n---------------------------------------------------------------\n- Bezoek ook eens mijn vrienden op: &lt;a href=&quot; http://www.Film-Test.nl&quot; rel=&quot;nofollow&quot; target=&quot;_NEW&quot;&gt; http://www.Film-Test.nl&lt;/a&gt; --\n----- voor mijn Nederlandse Sync. ondertitels ---- en meer ----\n------- http://www.Film-Test.nl ---- voor Films en meer -------\n---------------------------------------------------------------\n\nGeneral:\n\nComplete name                    : Earth, The Power of the Planet\\01Volcano.avi\nFormat                           : AVI\nFormat/Info                      : Audio Video Interleave\nFile size                        : 1.17 GiB\nDuration                         : 59mn 15s\nOverall bit rate                 : 2 834 Kbps\n\nVideo:\n\nFormat                           : MPEG-4 Visual\nFormat profile                   : Simple@L3\nFormat settings, BVOP            : No\nFormat settings, QPel            : No\nFormat settings, GMC             : No warppoints\nFormat settings, Matrix          : Default (H.263)\nCodec ID                         : XVID\nCodec ID/Hint                    : XviD\nDuration                         : 59mn 15s\nBit rate                         : 2 376 Kbps\nWidth                            : 704 pixels\nHeight                           : 396 pixels\nDisplay aspect ratio             : 16:9\nFrame rate                       : 25.000 fps\nColor space                      : YUV\nChroma subsampling               : 4:2:0\nBit depth                        : 8 bits\nScan type                        : Progressive\nCompression mode                 : Lossy\nBits/(Pixel*Frame)               : 0.341\nStream size                      : 1 007 MiB (84%)\nWriting library                  : XviD 1.1.2 (UTC 2006-11-01)\n\nAudio:\n\nFormat                           : AC-3\nFormat/Info                      : Audio Coding 3\nMode extension                   : CM (complete main)\nCodec ID                         : 2000\nDuration                         : 59mn 15s\nBit rate mode                    : Constant\nBit rate                         : 448 Kbps\nChannel(s)                       : 6 channels\nChannel positions                : Front: L C R, Side: L R, LFE\nSampling rate                    : 48.0 KHz\nBit depth                        : 16 bits\nCompression mode                 : Lossy\nStream size                      : 190 MiB (16%)\nAlignment                        : Aligned on interleaves\nInterleave, duration             : 32 ms (0.80 video frame)\n\n\n","torrent":{"xt":"urn:btih:7eeccc746ca51c14c8bf3514c143b056c396ca90","amp;dn":"Earth%2C+The+Power+of+the+Planet+2007+5DVDrip+English+Klam","amp;tr":["udp%3A%2F%2Ftracker.openbittorrent.com%3A80","udp%3A%2F%2Fopen.demonii.com%3A1337","udp%3A%2F%2Ftracker.coppersurfer.tk%3A6969","udp%3A%2F%2Fexodus.desync.com%3A6969"],"infoHash":"7eeccc746ca51c14c8bf3514c143b056c396ca90","infoHashBuffer":{"type":"Buffer","data":[126,236,204,116,108,165,28,20,200,191,53,20,193,67,176,86,195,150,202,144]},"announce":[],"urlList":[]}}